<svg width="1920" height="1080" viewBox="0 0 1920 1080" fill="none" xmlns="http://www.w3.org/2000/svg">
<g clip-path="url(#clip0_44_1069)">
<rect width="1920" height="1080" fill="#140035"/>
<g filter="url(#filter0_f_44_1069)">
<path d="M664 95.5C730 75.1 778.833 4.16666 783.5 -15.5L-14.5 -65L-30.5 499C-6.83334 489.833 46 468.7 68 457.5C95.5 443.5 54.5 368.5 109.5 304C164.5 239.5 205.5 274.5 297.5 242.5C389.5 210.5 325 194 439.5 132.5C554 71 581.5 121 664 95.5Z" fill="#7F4CF5"/>
</g>
<g filter="url(#filter1_f_44_1069)">
<path d="M388 185C526.8 185 618.667 51.8333 643 -8H-11C-5.5 169.5 -15.5 521 1.50001 454C18.3429 387.619 31.4999 271.5 130.5 224C229.5 176.5 249.2 185 388 185Z" fill="#B01A96"/>
</g>
<g filter="url(#filter2_f_44_1069)">
<path d="M1.44907 336.5C0.354065 330.675 -0.189001 323.662 0.0594501 315.818L-22 -12.5L473.449 0C442.116 40.5 339.149 127.9 177.949 153.5C37.9307 175.736 1.7018 263.963 0.0594501 315.818L1.44907 336.5Z" fill="#FF22BF"/>
</g>
<g filter="url(#filter3_f_44_1069)">
<path d="M1262.5 1007.5C1196.5 1027.9 1147.67 1098.83 1143 1118.5L1941 1168L1957 604C1933.33 613.167 1880.5 634.3 1858.5 645.5C1831 659.5 1872 734.5 1817 799C1762 863.5 1721 828.5 1629 860.5C1537 892.5 1601.5 909 1487 970.5C1372.5 1032 1345 982 1262.5 1007.5Z" fill="#7F4CF5"/>
</g>
<g filter="url(#filter4_f_44_1069)">
<path d="M1538.5 918C1399.7 918 1307.83 1051.17 1283.5 1111L1937.5 1111C1932 933.5 1942 582 1925 649C1908.16 715.381 1895 831.5 1796 879C1697 926.5 1677.3 918 1538.5 918Z" fill="#B01A96"/>
</g>
<g filter="url(#filter5_f_44_1069)">
<path d="M1925.05 766.5C1926.15 772.325 1926.69 779.338 1926.44 787.182L1948.5 1115.5L1453.05 1103C1484.38 1062.5 1587.35 975.1 1748.55 949.5C1888.57 927.264 1924.8 839.037 1926.44 787.182L1925.05 766.5Z" fill="#FF22BF"/>
</g>
<g filter="url(#filter6_f_44_1069)">
<circle cx="452" cy="826" r="60" fill="#FF22BF"/>
</g>
<g filter="url(#filter7_f_44_1069)">
<circle cx="1514" cy="480" r="60" fill="#B01A96"/>
</g>
<g filter="url(#filter8_f_44_1069)">
<circle cx="730" cy="227" r="60" fill="#7F4CF5"/>
</g>
<g filter="url(#filter9_f_44_1069)">
<path d="M664 95.5C730 75.1 778.833 4.16666 783.5 -15.5L-14.5 -65L-30.5 499C-6.83334 489.833 46 468.7 68 457.5C95.5 443.5 54.5 368.5 109.5 304C164.5 239.5 205.5 274.5 297.5 242.5C389.5 210.5 325 194 439.5 132.5C554 71 581.5 121 664 95.5Z" fill="#7F4CF5"/>
</g>
<g filter="url(#filter10_f_44_1069)">
<path d="M388 185C526.8 185 618.667 51.8333 643 -8H-11C-5.5 169.5 -15.5 521 1.50001 454C18.3429 387.619 31.4999 271.5 130.5 224C229.5 176.5 249.2 185 388 185Z" fill="#B01A96"/>
</g>
<g filter="url(#filter11_f_44_1069)">
<path d="M1.44907 336.5C0.354065 330.675 -0.189001 323.662 0.0594501 315.818L-22 -12.5L473.449 0C442.116 40.5 339.149 127.9 177.949 153.5C37.9307 175.736 1.7018 263.963 0.0594501 315.818L1.44907 336.5Z" fill="#FF22BF"/>
</g>
<g filter="url(#filter12_f_44_1069)">
<path d="M1262.5 1007.5C1196.5 1027.9 1147.67 1098.83 1143 1118.5L1941 1168L1957 604C1933.33 613.167 1880.5 634.3 1858.5 645.5C1831 659.5 1872 734.5 1817 799C1762 863.5 1721 828.5 1629 860.5C1537 892.5 1601.5 909 1487 970.5C1372.5 1032 1345 982 1262.5 1007.5Z" fill="#7F4CF5"/>
</g>
<g filter="url(#filter13_f_44_1069)">
<path d="M1538.5 918C1399.7 918 1307.83 1051.17 1283.5 1111L1937.5 1111C1932 933.5 1942 582 1925 649C1908.16 715.381 1895 831.5 1796 879C1697 926.5 1677.3 918 1538.5 918Z" fill="#B01A96"/>
</g>
<g filter="url(#filter14_f_44_1069)">
<path d="M1925.05 766.5C1926.15 772.325 1926.69 779.338 1926.44 787.182L1948.5 1115.5L1453.05 1103C1484.38 1062.5 1587.35 975.1 1748.55 949.5C1888.57 927.264 1924.8 839.037 1926.44 787.182L1925.05 766.5Z" fill="#FF22BF"/>
</g>
<g filter="url(#filter15_f_44_1069)">
<circle cx="452" cy="826" r="60" fill="#FF22BF"/>
</g>
<g filter="url(#filter16_f_44_1069)">
<circle cx="1514" cy="480" r="60" fill="#B01A96"/>
</g>
<g filter="url(#filter17_f_44_1069)">
<circle cx="730" cy="227" r="60" fill="#7F4CF5"/>
</g>
</g>
<defs>
<filter id="filter0_f_44_1069" x="-180.5" y="-215" width="1114" height="864" filterUnits="userSpaceOnUse" color-interpolation-filters="sRGB">
<feFlood flood-opacity="0" result="BackgroundImageFix"/>
<feBlend mode="normal" in="SourceGraphic" in2="BackgroundImageFix" result="shape"/>
<feGaussianBlur stdDeviation="75" result="effect1_foregroundBlur_44_1069"/>
</filter>
<filter id="filter1_f_44_1069" x="-161" y="-158" width="954" height="770.378" filterUnits="userSpaceOnUse" color-interpolation-filters="sRGB">
<feFlood flood-opacity="0" result="BackgroundImageFix"/>
<feBlend mode="normal" in="SourceGraphic" in2="BackgroundImageFix" result="shape"/>
<feGaussianBlur stdDeviation="75" result="effect1_foregroundBlur_44_1069"/>
</filter>
<filter id="filter2_f_44_1069" x="-172" y="-162.5" width="795.449" height="649" filterUnits="userSpaceOnUse" color-interpolation-filters="sRGB">
<feFlood flood-opacity="0" result="BackgroundImageFix"/>
<feBlend mode="normal" in="SourceGraphic" in2="BackgroundImageFix" result="shape"/>
<feGaussianBlur stdDeviation="75" result="effect1_foregroundBlur_44_1069"/>
</filter>
<filter id="filter3_f_44_1069" x="993" y="454" width="1114" height="864" filterUnits="userSpaceOnUse" color-interpolation-filters="sRGB">
<feFlood flood-opacity="0" result="BackgroundImageFix"/>
<feBlend mode="normal" in="SourceGraphic" in2="BackgroundImageFix" result="shape"/>
<feGaussianBlur stdDeviation="75" result="effect1_foregroundBlur_44_1069"/>
</filter>
<filter id="filter4_f_44_1069" x="1133.5" y="490.622" width="954" height="770.378" filterUnits="userSpaceOnUse" color-interpolation-filters="sRGB">
<feFlood flood-opacity="0" result="BackgroundImageFix"/>
<feBlend mode="normal" in="SourceGraphic" in2="BackgroundImageFix" result="shape"/>
<feGaussianBlur stdDeviation="75" result="effect1_foregroundBlur_44_1069"/>
</filter>
<filter id="filter5_f_44_1069" x="1303.05" y="616.5" width="795.449" height="649" filterUnits="userSpaceOnUse" color-interpolation-filters="sRGB">
<feFlood flood-opacity="0" result="BackgroundImageFix"/>
<feBlend mode="normal" in="SourceGraphic" in2="BackgroundImageFix" result="shape"/>
<feGaussianBlur stdDeviation="75" result="effect1_foregroundBlur_44_1069"/>
</filter>
<filter id="filter6_f_44_1069" x="292" y="666" width="320" height="320" filterUnits="userSpaceOnUse" color-interpolation-filters="sRGB">
<feFlood flood-opacity="0" result="BackgroundImageFix"/>
<feBlend mode="normal" in="SourceGraphic" in2="BackgroundImageFix" result="shape"/>
<feGaussianBlur stdDeviation="50" result="effect1_foregroundBlur_44_1069"/>
</filter>
<filter id="filter7_f_44_1069" x="1354" y="320" width="320" height="320" filterUnits="userSpaceOnUse" color-interpolation-filters="sRGB">
<feFlood flood-opacity="0" result="BackgroundImageFix"/>
<feBlend mode="normal" in="SourceGraphic" in2="BackgroundImageFix" result="shape"/>
<feGaussianBlur stdDeviation="50" result="effect1_foregroundBlur_44_1069"/>
</filter>
<filter id="filter8_f_44_1069" x="570" y="67" width="320" height="320" filterUnits="userSpaceOnUse" color-interpolation-filters="sRGB">
<feFlood flood-opacity="0" result="BackgroundImageFix"/>
<feBlend mode="normal" in="SourceGraphic" in2="BackgroundImageFix" result="shape"/>
<feGaussianBlur stdDeviation="50" result="effect1_foregroundBlur_44_1069"/>
</filter>
<filter id="filter9_f_44_1069" x="-180.5" y="-215" width="1114" height="864" filterUnits="userSpaceOnUse" color-interpolation-filters="sRGB">
<feFlood flood-opacity="0" result="BackgroundImageFix"/>
<feBlend mode="normal" in="SourceGraphic" in2="BackgroundImageFix" result="shape"/>
<feGaussianBlur stdDeviation="75" result="effect1_foregroundBlur_44_1069"/>
</filter>
<filter id="filter10_f_44_1069" x="-161" y="-158" width="954" height="770.378" filterUnits="userSpaceOnUse" color-interpolation-filters="sRGB">
<feFlood flood-opacity="0" result="BackgroundImageFix"/>
<feBlend mode="normal" in="SourceGraphic" in2="BackgroundImageFix" result="shape"/>
<feGaussianBlur stdDeviation="75" result="effect1_foregroundBlur_44_1069"/>
</filter>
<filter id="filter11_f_44_1069" x="-172" y="-162.5" width="795.449" height="649" filterUnits="userSpaceOnUse" color-interpolation-filters="sRGB">
<feFlood flood-opacity="0" result="BackgroundImageFix"/>
<feBlend mode="normal" in="SourceGraphic" in2="BackgroundImageFix" result="shape"/>
<feGaussianBlur stdDeviation="75" result="effect1_foregroundBlur_44_1069"/>
</filter>
<filter id="filter12_f_44_1069" x="993" y="454" width="1114" height="864" filterUnits="userSpaceOnUse" color-interpolation-filters="sRGB">
<feFlood flood-opacity="0" result="BackgroundImageFix"/>
<feBlend mode="normal" in="SourceGraphic" in2="BackgroundImageFix" result="shape"/>
<feGaussianBlur stdDeviation="75" result="effect1_foregroundBlur_44_1069"/>
</filter>
<filter id="filter13_f_44_1069" x="1133.5" y="490.622" width="954" height="770.378" filterUnits="userSpaceOnUse" color-interpolation-filters="sRGB">
<feFlood flood-opacity="0" result="BackgroundImageFix"/>
<feBlend mode="normal" in="SourceGraphic" in2="BackgroundImageFix" result="shape"/>
<feGaussianBlur stdDeviation="75" result="effect1_foregroundBlur_44_1069"/>
</filter>
<filter id="filter14_f_44_1069" x="1303.05" y="616.5" width="795.449" height="649" filterUnits="userSpaceOnUse" color-interpolation-filters="sRGB">
<feFlood flood-opacity="0" result="BackgroundImageFix"/>
<feBlend mode="normal" in="SourceGraphic" in2="BackgroundImageFix" result="shape"/>
<feGaussianBlur stdDeviation="75" result="effect1_foregroundBlur_44_1069"/>
</filter>
<filter id="filter15_f_44_1069" x="292" y="666" width="320" height="320" filterUnits="userSpaceOnUse" color-interpolation-filters="sRGB">
<feFlood flood-opacity="0" result="BackgroundImageFix"/>
<feBlend mode="normal" in="SourceGraphic" in2="BackgroundImageFix" result="shape"/>
<feGaussianBlur stdDeviation="50" result="effect1_foregroundBlur_44_1069"/>
</filter>
<filter id="filter16_f_44_1069" x="1354" y="320" width="320" height="320" filterUnits="userSpaceOnUse" color-interpolation-filters="sRGB">
<feFlood flood-opacity="0" result="BackgroundImageFix"/>
<feBlend mode="normal" in="SourceGraphic" in2="BackgroundImageFix" result="shape"/>
<feGaussianBlur stdDeviation="50" result="effect1_foregroundBlur_44_1069"/>
</filter>
<filter id="filter17_f_44_1069" x="570" y="67" width="320" height="320" filterUnits="userSpaceOnUse" color-interpolation-filters="sRGB">
<feFlood flood-opacity="0" result="BackgroundImageFix"/>
<feBlend mode="normal" in="SourceGraphic" in2="BackgroundImageFix" result="shape"/>
<feGaussianBlur stdDeviation="50" result="effect1_foregroundBlur_44_1069"/>
</filter>
<clipPath id="clip0_44_1069">
<rect width="1920" height="1080" fill="white"/>
</clipPath>
</defs>
</svg>
